#!OML:ASF E:\Style4\Style4.ASF
:FULLY-SPECIFIED
:DEGREES
2117
root 0.887188 16.8581 -1.65219 4.19211 -8.6288 3.15581
lowerback 17.6872 3.49455 2.66298
upperback 13.5647 4.73559 3.41268
thorax 4.66192 2.3802 1.50828
lowerneck 6.94733 -7.598 -5.1911
upperneck -2.897 -11.1357 -9.58961
head -2.42226 -5.17505 -1.72501
rclavicle -8.90555e-014 -3.49861e-014
rhumerus 33.6693 22.2595 -86.3621
rradius 97.4643
rwrist -58.5262
rhand -45.5911 36.4104
rfingers 7.12502
rthumb -18.3524 7.25616
lclavicle -8.90555e-014 -3.49861e-014
lhumerus 59.199 -17.0441 35.6684
lradius 90.0141
lwrist 57.6829
lhand -5.80842 45.57
lfingers 7.12502
lthumb 20.0165 74.559
rfemur -35.8462 -3.32649 13.7595
rtibia 53.7104
rfoot -20.4163 -12.8687
rtoes -13.6903
lfemur -32.6185 6.89877 -25.3809
ltibia 52.7317
lfoot -25.2751 12.4631
ltoes -12.238
2118
root 0.899089 16.8515 -1.6508 4.1833 -9.08458 3.07407
lowerback 17.6928 3.41005 2.59152
upperback 13.5188 4.61721 3.2162
thorax 4.61817 2.32271 1.35222
lowerneck 6.85466 -7.41416 -4.77701
upperneck -2.70684 -10.8413 -9.85149
head -2.37916 -5.03972 -1.89664
rclavicle 3.18055e-015 1.27222e-014
rhumerus 33.2295 21.9461 -86.5717
rradius 97.5774
rwrist -58.4382
rhand -46.0832 36.3442
rfingers 7.12502
rthumb -18.8257 7.23521
lclavicle 3.18055e-015 1.27222e-014
lhumerus 59.3538 -17.5143 35.7342
lradius 90.0177
lwrist 58.0513
lhand -5.72916 45.7727
lfingers 7.12502
lthumb 20.0927 74.7538
rfemur -35.9596 -3.22709 13.8426
rtibia 53.7302
rfoot -20.3534 -12.6254
rtoes -14.2648
lfemur -32.6662 7.08864 -25.3261
ltibia 52.9091
lfoot -25.493 12.6277
ltoes -11.8782
2119
root 0.908355 16.8451 -1.64802 4.1897 -9.56271 2.99244
lowerback 17.596 3.20088 2.43786
upperback 13.5653 4.31825 3.01735
thorax 4.72401 2.16884 1.27404
lowerneck 6.74408 -7.0766 -4.74788
upperneck -2.73728 -10.3856 -9.92667
head -2.36353 -4.8151 -1.95033
rclavicle -6.36111e-015 -3.18055e-015
rhumerus 32.9846 21.9558 -86.7867
rradius 97.7256
rwrist -58.1198
rhand -46.5779 35.3098
rfingers 7.12502
rthumb -19.3015 6.24768
lclavicle -6.36111e-015 -3.18055e-015
lhumerus 59.2665 -17.6174 35.8097
lradius 90.1702
lwrist 58.9406
lhand -6.49803 46.2705
lfingers 7.12502
lthumb 19.3535 75.3275
rfemur -36.0778 -3.04306 13.9211
rtibia 53.7386
rfoot -20.303 -12.4441
rtoes -14.4781
lfemur -32.7269 7.34662 -25.2707
ltibia 53.0869
lfoot -25.6881 12.7603
ltoes -11.7294
2120
root 0.917195 16.8385 -1.64472 4.12989 -10.0449 2.9123
lowerback 17.5634 2.98141 2.34811
upperback 13.6335 4.01537 2.80011
thorax 4.82742 2.0184 1.13817
lowerneck 6.75376 -6.72122 -4.94111
upperneck -3.02807 -9.94459 -9.69035
head -2.42302 -4.58721 -1.85753
rclavicle -3.65764e-014 -3.65764e-014
rhumerus 32.8491 21.9157 -86.8738
rradius 97.6397
rwrist -57.9542
rhand -46.4852 35.3097
rfingers 7.12502
rthumb -19.2123 6.23867
lclavicle -3.65764e-014 -3.65764e-014
lhumerus 59.2087 -17.8495 35.9596
lradius 90.1301
lwrist 59.5428
lhand -6.9832 46.4217
lfingers 7.12502
lthumb 18.887 75.5248
rfemur -36.1159 -2.83562 13.9751
rtibia 53.7409
rfoot -20.3258 -12.1619
rtoes -14.1718
lfemur -32.7006 7.60996 -25.2075
ltibia 53.2545
lfoot -25.8896 12.9127
ltoes -11.6686
2121
root 0.924089 16.8336 -1.64107 4.03764 -10.5071 2.85873
lowerback 17.5713 2.85989 2.2863
upperback 13.7142 3.84486 2.58735
thorax 4.92491 1.93675 0.972526
lowerneck 6.7295 -6.47013 -5.11722
upperneck -3.32692 -9.6284 -9.28798
head -2.4744 -4.42725 -1.70906
rclavicle 1.35174e-014 1.59028e-015
rhumerus 32.6575 21.632 -86.7867
rradius 97.593
rwrist -58.0748
rhand -46.2381 35.9837
rfingers 7.12502
rthumb -18.9747 6.8892
lclavicle 1.35174e-014 1.59028e-015
lhumerus 59.398 -18.3016 36.1793
lradius 89.9434
lwrist 59.8721
lhand -6.93962 46.2097
lfingers 7.12502
lthumb 18.9289 75.3087
rfemur -36.1082 -2.67384 14.0083
rtibia 53.7411
rfoot -20.3585 -11.8386
rtoes -13.7696
lfemur -32.6301 7.87041 -25.1664
ltibia 53.4099
lfoot -26.1099 13.0963
ltoes -11.7157
2122
root 0.929193 16.8279 -1.63746 3.9818 -10.9636 2.82739
lowerback 17.4821 2.7413 1.91008
upperback 13.803 3.63499 2.5189
thorax 5.04871 1.8044 1.14363
lowerneck 6.75467 -6.19779 -5.30507
upperneck -3.58027 -9.30308 -9.17221
head -2.53955 -4.25414 -1.65134
rclavicle -2.06736e-014 -1.90833e-014
rhumerus 32.4898 21.5737 -86.4438
rradius 97.6306
rwrist -58.3456
rhand -46.1516 36.2433
rfingers 7.12502
rthumb -18.8915 7.14073
lclavicle -2.06736e-014 -1.90833e-014
lhumerus 59.3048 -18.5745 36.5689
lradius 90.0061
lwrist 60.896
lhand -7.55352 46.2291
lfingers 7.12502
lthumb 18.3384 75.3846
rfemur -36.1481 -2.50401 14.0327
rtibia 53.7604
rfoot -20.341 -11.6338
rtoes -14.065
lfemur -32.5984 8.15926 -25.1464
ltibia 53.5494
lfoot -26.3127 13.1574
ltoes -11.3461
